HIERARCHY
ROOT Hips
{
	OFFSET 0.000000 0.000000 0.000000
	CHANNELS 6 Xposition Yposition Zposition Zrotation Yrotation Xrotation 
	JOINT LHipJoint
	{
		OFFSET 0.000000 0.000000 0.000000
		CHANNELS 3 Zrotation Yrotation Xrotation
		JOINT LeftUpLeg
		{
			OFFSET 1.363060 -1.794630 0.839290
			CHANNELS 3 Zrotation Yrotation Xrotation
			JOINT LeftLeg
			{
				OFFSET 2.448110 -6.726130 0.000000
				CHANNELS 3 Zrotation Yrotation Xrotation
				JOINT LeftFoot
				{
					OFFSET 2.562200 -7.039590 0.000000
					CHANNELS 3 Zrotation Yrotation Xrotation
					JOINT LeftToeBase
					{
						OFFSET 0.157640 -0.433110 2.322550
						CHANNELS 3 Zrotation Yrotation Xrotation
						End Site
						{
							OFFSET 0.000000 0.000000 0.000000
						}
					}
				}
			}
		}
	}
	JOINT RHipJoint
	{
		OFFSET 0.000000 0.000000 0.000000
		CHANNELS 3 Zrotation Yrotation Xrotation
		JOINT RightUpLeg
		{
			OFFSET -1.305520 -1.794630 0.839290
			CHANNELS 3 Zrotation Yrotation Xrotation
			JOINT RightLeg
			{
				OFFSET -2.542530 -6.985550 0.000000
				CHANNELS 3 Zrotation Yrotation Xrotation
				JOINT RightFoot
				{
					OFFSET -2.568260 -7.056230 0.000000
					CHANNELS 3 Zrotation Yrotation Xrotation
					JOINT RightToeBase
					{
						OFFSET -0.164730 -0.452590 2.363150
						CHANNELS 3 Zrotation Yrotation Xrotation
						End Site
						{
							OFFSET 0.000000 0.000000 0.000000
						}
					}
				}
			}
		}
	}
	JOINT LowerBack
	{
		OFFSET 0.000000 0.000000 0.000000
		CHANNELS 3 Zrotation Yrotation Xrotation
		JOINT Spine
		{
			OFFSET 0.028270 2.035590 -0.193380
			CHANNELS 3 Zrotation Yrotation Xrotation
			JOINT Spine1
			{
				OFFSET 0.056720 2.048850 -0.042750
				CHANNELS 3 Zrotation Yrotation Xrotation
				JOINT Neck
				{
					OFFSET 0.000000 0.000000 0.000000
					CHANNELS 3 Zrotation Yrotation Xrotation
					JOINT Neck1
					{
						OFFSET -0.054170 1.746240 0.172020
						CHANNELS 3 Zrotation Yrotation Xrotation
						JOINT Head
						{
							OFFSET 0.104070 1.761360 -0.123970
							CHANNELS 3 Zrotation Yrotation Xrotation
							End Site
							{
								OFFSET 0.000000 0.000000 0.000000
							}
						}
					}
				}
				JOINT LeftShoulder
				{
					OFFSET 0.000000 0.000000 0.000000
					CHANNELS 3 Zrotation Yrotation Xrotation
					JOINT LeftArm
					{
						OFFSET 3.362410 1.200890 -0.311210
						CHANNELS 3 Zrotation Yrotation Xrotation
						JOINT LeftForeArm
						{
							OFFSET 4.983000 -0.000000 -0.000000
							CHANNELS 3 Zrotation Yrotation Xrotation
							JOINT LeftHand
							{
								OFFSET 3.483560 -0.000000 -0.000000
								CHANNELS 3 Zrotation Yrotation Xrotation
								JOINT LeftFingerBase
								{
									OFFSET 0.000000 0.000000 0.000000
									CHANNELS 3 Zrotation Yrotation Xrotation
									JOINT LeftHandIndex1
									{
										OFFSET 0.715260 -0.000000 -0.000000
										CHANNELS 3 Zrotation Yrotation Xrotation
										End Site
										{
											OFFSET 0.000000 0.000000 0.000000
										}
									}
								}
								JOINT LThumb
								{
									OFFSET 0.000000 0.000000 0.000000
									CHANNELS 3 Zrotation Yrotation Xrotation
									End Site
									{
										OFFSET 0.000000 0.000000 0.000000
									}
								}
							}
						}
					}
				}
				JOINT RightShoulder
				{
					OFFSET 0.000000 0.000000 0.000000
					CHANNELS 3 Zrotation Yrotation Xrotation
					JOINT RightArm
					{
						OFFSET -3.136600 1.374050 -0.404650
						CHANNELS 3 Zrotation Yrotation Xrotation
						JOINT RightForeArm
						{
							OFFSET -5.241900 -0.000000 -0.000000
							CHANNELS 3 Zrotation Yrotation Xrotation
							JOINT RightHand
							{
								OFFSET -3.444170 -0.000000 -0.000000
								CHANNELS 3 Zrotation Yrotation Xrotation
								JOINT RightFingerBase
								{
									OFFSET 0.000000 0.000000 0.000000
									CHANNELS 3 Zrotation Yrotation Xrotation
									JOINT RightHandIndex1
									{
										OFFSET -0.622530 -0.000000 -0.000000
										CHANNELS 3 Zrotation Yrotation Xrotation
										End Site
										{
											OFFSET 0.000000 0.000000 0.000000
										}
									}
								}
								JOINT RThumb
								{
									OFFSET 0.000000 0.000000 0.000000
									CHANNELS 3 Zrotation Yrotation Xrotation
									End Site
									{
										OFFSET 0.000000 0.000000 0.000000
									}
								}
							}
						}
					}
				}
			}
		}
	}
}
MOTION
Frames: 9
Frame Time: 0.033333
2.414132 17.181239 -27.936991 -6.287471 11.327889 13.663649 -16.738024 5.333841 -5.027649 2.094469 5.958335 -19.324391 -11.653843 -19.938392 -14.342531 0.382314 13.375451 30.682123 0.380544 0.074938 -44.181089 14.062366 -9.514759 10.908613 16.286550 18.044740 -45.869523 1.703098 -8.413778 17.736397 -0.817221 -4.841355 10.822382 1.150227 -0.081053 -53.622285 12.778710 -12.724205 -13.870321 -2.056321 1.537419 -2.532051 -6.196001 1.514384 1.219038 9.175980 -5.783977 -8.300446 -2.906432 -0.354029 -0.200429 -0.000906 0.023030 0.051282 1.002255 4.341926 8.393610 -71.400483 -30.538092 -3.143223 -15.732370 -47.553220 8.617796 8.167105 -2.874659 -0.354948 -0.354518 0.566716 -0.018840 -0.033957 -0.038225 0.021888 -0.068584 0.078869 -0.066597 17.023778 -33.032656 18.379155 68.252105 31.707847 11.123933 -4.639522 48.962531 -1.015647 -7.698716 11.530146 -0.942374 0.112613 -0.524937 -0.033278 0.073097 0.045363 -0.089763 0.045299 -0.004077 -0.034877 
2.489271 17.168440 -27.470352 -6.528901 14.473678 14.740633 -16.831464 6.060926 -5.955557 2.970114 7.226425 -19.194761 -16.112657 -21.387094 -12.228892 1.019415 9.812521 30.126099 0.222074 0.072053 -44.458608 13.021374 -8.923028 11.012336 16.567773 18.429358 -50.041633 -0.216146 -7.979015 25.095164 -1.267872 -3.571294 10.418499 1.312629 -0.081380 -55.751732 15.752018 -19.373538 -18.480057 -2.545427 2.039669 -2.696892 -4.869933 2.658354 1.074682 9.127934 -5.827180 -7.771414 -3.109715 -0.352449 -0.007035 -0.004735 0.024379 0.049792 0.222856 5.440384 9.229498 -67.773648 -38.878398 -6.063886 -14.801297 -46.810788 7.708826 8.333149 -3.286562 -0.380235 -0.377665 0.454046 -0.020643 -0.034778 -0.039486 0.031541 -0.063930 0.082612 -0.059903 14.331207 -31.294205 21.585362 67.017451 30.086147 9.947278 -4.789254 46.773517 -1.184568 -7.627658 11.277428 -0.907699 0.135449 -0.552638 -0.030500 0.077367 0.041989 -0.095236 0.053488 -0.009464 -0.036318 
2.553317 17.179788 -27.026270 -5.505013 16.898767 13.738513 -15.992968 5.110096 -4.691119 1.332882 6.043788 -17.836577 -14.881348 -20.108873 -10.794665 1.346076 6.932967 26.444793 0.351596 0.056636 -43.295155 11.896239 -8.893389 10.013319 12.240199 19.190223 -52.241122 0.984327 -6.762749 37.036013 -0.545424 0.750635 10.992200 1.273573 -0.045379 -58.013065 15.560816 -22.442081 -18.269528 -4.236908 2.547216 -2.744279 -5.166486 1.976212 1.992335 9.649789 -5.909674 -7.555865 -3.047592 -0.338410 0.110062 -0.006066 0.024143 0.056299 0.843435 4.824266 8.537893 -63.690162 -45.027925 -11.145656 -12.706022 -40.564333 5.718455 8.647583 -3.229188 -0.368281 -0.359838 0.383168 -0.029155 -0.046521 -0.037204 0.038414 -0.064936 0.085144 -0.048068 19.077307 -30.694940 18.463137 66.361617 27.731369 7.524984 -5.551206 42.348555 -2.068794 -7.461496 10.962678 -0.853828 0.095253 -0.491309 -0.018337 0.078021 0.037746 -0.098389 0.051408 -0.018505 -0.032648 
2.609888 17.214467 -26.602098 -4.557672 16.194378 12.659149 -15.787824 4.861312 -4.833260 0.466507 6.246633 -16.438282 -14.327319 -17.858533 -7.432226 1.641139 4.346558 21.311516 0.539740 0.064600 -40.943126 11.557265 -7.718517 9.807316 7.110874 16.357539 -56.974597 7.964646 -5.245320 49.999554 0.656233 6.321340 17.928884 0.969047 -0.069265 -57.535428 12.770281 -21.295547 -16.002867 -4.438451 2.025194 -3.018845 -5.945311 1.892013 1.377580 9.737027 -6.010162 -8.210942 -3.009786 -0.333366 -0.028207 -0.002830 0.022223 0.053576 0.894374 3.352307 8.691272 -60.643155 -48.393721 -14.436711 -11.462226 -32.540962 4.673139 9.537453 -2.950843 -0.369340 -0.336540 0.427127 -0.022507 -0.054424 -0.035254 0.028491 -0.076539 0.085673 -0.039937 20.419576 -35.680681 20.055548 65.787129 26.315575 6.054459 -6.002578 40.155313 -2.123783 -7.408811 10.646994 -0.829950 0.077928 -0.534842 -0.021816 0.074113 0.031965 -0.101704 0.051936 -0.019435 -0.038448 
2.667458 17.271729 -26.197670 -5.425695 15.117600 10.781147 -14.730695 3.633361 -3.725515 -0.294791 5.980737 -16.733259 -10.957680 -16.537732 -2.297835 2.021125 4.320017 13.777861 0.721932 0.035391 -37.777759 11.501030 -7.429867 9.586172 6.807774 14.195882 -58.919697 9.817668 -5.813218 59.058058 1.257843 7.529741 19.891213 0.803946 -0.079366 -55.037011 13.011943 -19.971813 -14.145096 -4.782199 2.498034 -2.919222 -6.244190 1.085326 2.459955 9.642407 -6.627925 -8.549935 -3.025847 -0.328223 -0.045430 -0.002424 0.025826 0.051435 0.699739 1.878546 7.659521 -62.056208 -46.391125 -15.688982 -10.370297 -25.489800 3.853187 10.160639 -2.528079 -0.336910 -0.324525 0.406781 -0.023084 -0.061910 -0.031808 0.019597 -0.086927 0.079147 -0.031693 20.214216 -34.613116 19.000593 65.675884 24.450808 5.428821 -5.445992 38.223442 -1.637633 -7.407210 10.452022 -0.810139 0.096571 -0.436788 -0.030678 0.066844 0.023765 -0.104480 0.059383 -0.017314 -0.043208 
2.730654 17.347455 -25.816242 -5.836946 12.606204 11.466169 -14.494181 2.835395 -3.401820 -0.957053 7.275488 -19.309640 -9.508825 -17.431071 3.479257 2.530473 6.400618 8.341586 0.810821 0.018308 -33.848177 11.785302 -6.657108 8.705389 5.194365 12.402129 -60.014094 10.345374 -6.416557 63.262987 1.008577 7.935144 16.798901 0.696217 -0.095877 -52.416739 12.707785 -16.401969 -13.529694 -4.608960 1.425579 -3.207039 -5.821382 0.391250 2.739372 9.701821 -7.136328 -9.091487 -3.036393 -0.316613 -0.270029 0.002764 0.026735 0.036660 0.715860 1.171169 8.319358 -62.615884 -40.834937 -15.724897 -9.936368 -19.839014 2.182553 10.898849 -2.239042 -0.325994 -0.327522 0.403639 -0.020192 -0.064845 -0.033851 0.005414 -0.092123 0.075900 -0.023364 18.283816 -32.861551 17.367510 64.475750 21.783387 6.454408 -5.497595 36.460150 -1.811959 -7.488039 9.993288 -0.787352 0.054514 -0.437194 -0.044538 0.058361 0.014157 -0.106897 0.070443 -0.012273 -0.056479 
2.786497 17.433420 -25.456221 -5.266393 10.127191 11.676958 -14.809667 2.132761 -2.675268 -2.531659 7.665159 -23.424564 -8.090090 -16.791514 12.561283 3.222344 8.410947 3.337568 0.699192 0.015454 -29.692022 11.081668 -6.632901 8.036401 6.513362 11.083382 -58.616572 5.782812 -6.093269 64.320564 0.174001 5.623800 9.329075 0.960010 -0.080715 -51.294377 10.278283 -14.115822 -11.416518 -2.997366 0.849488 -3.111304 -6.705122 -0.418526 3.910114 9.877566 -7.974794 -9.246462 -3.072246 -0.310616 -0.486639 -0.011719 0.030984 0.035392 0.623465 0.577576 6.765071 -67.291353 -30.951841 -11.081852 -8.398129 -18.381420 1.560247 10.933218 -1.778475 -0.258344 -0.267143 0.327340 -0.031767 -0.073208 -0.043976 0.000096 -0.100464 0.077127 -0.007910 20.186350 -29.841432 8.839985 63.408968 18.071614 5.347871 -4.407268 36.448133 -1.396652 -7.426175 9.610206 -0.731068 0.064389 -0.372374 -0.047823 0.057584 0.007307 -0.115978 0.082235 -0.006442 -0.054274 
2.850958 17.514268 -25.112509 -5.811882 6.076568 11.559515 -14.363883 0.599331 -1.157256 -4.003225 9.127201 -29.175267 -6.144120 -14.433257 22.373332 4.072527 10.878646 0.256655 0.459431 0.048876 -25.611327 11.079391 -6.201208 7.505665 8.187176 11.191336 -54.396263 0.456650 -6.282329 60.754690 -0.976448 3.488469 0.085438 1.238461 -0.007683 -51.579243 8.897169 -9.850465 -8.714173 -2.925601 -0.026117 -2.099151 -6.069833 -1.197341 4.238666 10.037989 -8.723506 -9.524394 -3.159480 -0.317870 -0.615065 -0.019802 0.031132 0.032104 0.349810 0.156107 5.938219 -70.789132 -18.381392 -5.701561 -7.881261 -16.600396 0.787687 10.775235 -1.585218 -0.213803 -0.288910 0.275156 -0.045487 -0.079329 -0.051535 -0.012390 -0.101072 0.075454 0.007813 20.573899 -26.107400 1.528631 63.614092 14.867537 4.417390 -3.799757 36.544237 -1.401524 -7.109106 9.170789 -0.645507 0.050561 -0.381933 -0.053586 0.055215 -0.003518 -0.123978 0.092953 -0.002669 -0.056226 
2.906078 17.589649 -24.780548 -5.297265 2.817669 12.755949 -14.639899 -1.081402 -0.102148 -6.488525 10.604254 -35.528149 -4.092704 -13.391452 30.972858 3.304921 13.849229 -0.148358 0.382676 0.084660 -22.551882 11.287507 -5.444756 6.526688 8.311268 10.578597 -50.441675 -1.399262 -6.063497 55.964055 -1.622519 2.551684 -5.525846 1.477540 -0.013084 -51.323514 7.223138 -6.860393 -7.496586 -1.560285 -1.304575 -2.072585 -6.833741 -0.855825 4.610041 10.218351 -9.401631 -9.445129 -3.208717 -0.323803 -0.569449 -0.022555 0.036981 0.032564 0.544676 -0.527575 4.328516 -74.793907 -4.125007 -0.283843 -5.990186 -15.568137 0.087957 10.190968 -0.888590 -0.123614 -0.228447 0.227942 -0.050290 -0.084467 -0.064376 -0.017016 -0.108161 0.083289 0.023840 20.854249 -21.534293 -2.794423 62.721236 12.563542 3.995875 -1.496589 39.597939 -0.647132 -7.008239 9.013646 -0.599923 0.104313 -0.280233 -0.050268 0.056835 -0.001764 -0.130445 0.092804 -0.010608 -0.045910 
